#!OML:ASF F:\VICON\USERDATA\INSTALL\rory3\rory3.ASF
:FULLY-SPECIFIED
:DEGREES
90
root 1.87129 17.6457 -22.01 193.972 -72.0991 -13.9051
lowerback -0.341278 4.52037 6.85857
upperback -17.718 5.77913 -3.4741
thorax -19.1646 1.16746 -8.73559
lowerneck -8.69034 0.433445 1.00685
upperneck -16.5772 0.490146 1.97418
head -3.93268 -0.127102 0.496413
rclavicle -1.85367e-013 -7.86193e-014
rhumerus 69.8095 -24.8169 -20.5952
rradius 21.5045
rwrist 20.4451
rhand -32.9747 97.0084
rfingers 7.12502
rthumb 173.81 -53.102
lclavicle -1.85367e-013 -7.86193e-014
lhumerus 84.0198 23.0109 15.6812
lradius 31.0149
lwrist 37.1509
lhand -46.2566 -266.365
lfingers 7.12502
lthumb -18.9925 -64.5427
rfemur -46.7279 -11.4901 -11.3544
rtibia 37.739
rfoot -27.8196 -34.7517
rtoes -7.31029
lfemur -47.3632 8.21114 23.0186
ltibia 24.505
lfoot -26.2357 34.7947
ltoes -3.87271
91
root 1.8821 17.6649 -21.8702 196.188 -72.5653 -17.076
lowerback 0.484963 4.25251 6.47817
upperback -17.2746 5.53446 -3.144
thorax -19.2203 1.16506 -8.15365
lowerneck -9.17242 0.123682 -1.65935
upperneck -16.8426 0.350011 3.20958
head -3.96323 -0.0910694 1.37625
rclavicle 1.95057e-014 -3.99557e-014
rhumerus 71.2549 -24.6605 -20.4019
rradius 21.5641
rwrist 18.5362
rhand -33.2321 97.1742
rfingers 7.12502
rthumb 173.562 -52.9436
lclavicle 1.95057e-014 -3.99557e-014
lhumerus 84.1968 23.3739 16.5113
lradius 29.7641
lwrist 36.7691
lhand -47.2214 -264.19
lfingers 7.12502
lthumb -19.9201 -66.811
rfemur -43.6569 -10.4635 -10.4981
rtibia 35.4922
rfoot -27.3363 -35.7897
rtoes -10.4333
lfemur -47.889 9.28906 24.1347
ltibia 25.178
lfoot -25.3657 34.5221
ltoes -5.2103
92
root 1.90077 17.6781 -21.7212 198.973 -72.8474 -20.8177
lowerback 1.18689 4.03065 5.9999
upperback -16.8 5.30845 -2.8836
thorax -19.1403 1.18428 -7.58083
lowerneck -9.92609 0.112188 -2.88455
upperneck -16.8656 0.440228 3.45539
head -3.85415 0.0180592 1.67259
rclavicle -1.86957e-013 -1.25632e-013
rhumerus 72.396 -24.4274 -19.8003
rradius 21.5579
rwrist 15.5017
rhand -32.3912 96.9155
rfingers 7.12502
rthumb 174.374 -53.1792
lclavicle -1.86957e-013 -1.25632e-013
lhumerus 84.0379 23.8233 16.9407
lradius 28.9435
lwrist 36.6396
lhand -49.0346 -260.353
lfingers 7.12502
lthumb -21.6622 -70.8392
rfemur -40.6267 -9.79467 -9.67003
rtibia 33.1374
rfoot -26.1186 -37.0695
rtoes -9.49433
lfemur -48.24 10.2023 25.2647
ltibia 25.7038
lfoot -25.4789 34.0305
ltoes -5.02312
93
root 1.91527 17.6803 -21.5758 203.267 -72.6814 -26.2907
lowerback 2.0366 3.84843 4.96675
upperback -16.2796 5.02737 -2.82779
thorax -19.125 1.22035 -6.9386
lowerneck -10.6262 0.108155 -3.63064
upperneck -16.9564 0.488674 3.43156
head -3.77479 0.0832543 1.79566
rclavicle 2.27012e-013 1.1291e-013
rhumerus 73.8169 -24.3861 -20.112
rradius 21.4817
rwrist 13.6734
rhand -31.268 96.9833
rfingers 7.12502
rthumb 175.458 -53.0854
lclavicle 2.27012e-013 1.1291e-013
lhumerus 83.5388 24.2006 16.4733
lradius 28.7492
lwrist 36.5371
lhand -51.0146 -255.616
lfingers 7.12502
lthumb -23.5626 -75.8076
rfemur -37.3116 -8.14701 -9.84929
rtibia 30.5384
rfoot -27.2816 -38.0111
rtoes -6.90383
lfemur -48.2356 10.6944 26.0796
ltibia 26.1384
lfoot -25.9853 33.8462
ltoes -3.81037
94
root 1.92844 17.6762 -21.4374 208.592 -71.9942 -32.8752
lowerback 2.86414 3.70935 3.32056
upperback -15.7605 4.66799 -2.95874
thorax -19.1351 1.27973 -6.1535
lowerneck -11.19 0.176148 -3.52546
upperneck -17.1583 0.512152 2.92024
head -3.74647 0.0938082 1.60402
rclavicle -9.02482e-014 -4.29375e-014
rhumerus 74.9676 -24.4223 -20.3065
rradius 21.4526
rwrist 12.5732
rhand -31.6806 97.3645
rfingers 7.12502
rthumb 175.06 -52.7131
lclavicle -9.02482e-014 -4.29375e-014
lhumerus 83.6418 24.4967 16.4687
lradius 28.0243
lwrist 36.6845
lhand -49.6357 -258.435
lfingers 7.12502
lthumb -22.2394 -72.8245
rfemur -33.9706 -6.32745 -10.6121
rtibia 27.7211
rfoot -29.3112 -38.3507
rtoes -1.28373
lfemur -47.9602 10.7099 26.7055
ltibia 26.3824
lfoot -25.4284 35.1424
ltoes -4.1101
95
root 1.94662 17.665 -21.2991 212.98 -71.2403 -38.3032
lowerback 3.35471 3.58013 1.72639
upperback -15.2889 4.30734 -3.03649
thorax -18.9797 1.34773 -5.30141
lowerneck -12.1866 0.258424 -3.534
upperneck -16.92 0.607615 2.68088
head -3.49137 0.145083 1.51885
rclavicle 1.08536e-013 9.18385e-014
rhumerus 75.7084 -24.2971 -19.4274
rradius 21.4184
rwrist 10.8893
rhand -32.8793 97.4008
rfingers 7.12502
rthumb 173.902 -52.707
lclavicle 1.08536e-013 9.18385e-014
lhumerus 82.3677 25.0683 15.1249
lradius 28.289
lwrist 37.4448
lhand -47.8008 -260.417
lfingers 7.12502
lthumb -20.477 -70.6423
rfemur -30.6334 -4.35876 -11.1021
rtibia 24.5895
rfoot -29.7028 -39.551
rtoes 1.83389
lfemur -47.7425 10.6801 27.7411
ltibia 26.5368
lfoot -25.3673 36.5253
ltoes -4.53689
96
root 1.97345 17.6532 -21.1607 216.015 -70.6019 -42.1446
lowerback 3.71504 3.56334 0.907592
upperback -14.8466 4.2119 -2.96051
thorax -18.7031 1.44331 -4.73467
lowerneck -13.2522 0.0764927 -5.34431
upperneck -16.5565 0.650228 3.40479
head -3.21361 0.260565 2.07999
rclavicle -8.62725e-014 -1.27222e-014
rhumerus 75.8015 -24.3387 -17.4702
rradius 21.7933
rwrist 8.31053
rhand -32.8018 97.1628
rfingers 7.12502
rthumb 173.977 -52.9428
lclavicle -8.62725e-014 -1.27222e-014
lhumerus 80.9408 25.5759 14.4102
lradius 28.8339
lwrist 38.0251
lhand -45.4452 -263.761
lfingers 7.12502
lthumb -18.212 -67.0713
rfemur -27.3212 -1.95262 -11.1409
rtibia 21.219
rfoot -29.9532 -41.0112
rtoes 2.74128
lfemur -47.4679 10.6944 29.4612
ltibia 26.6192
lfoot -27.3962 37.02
ltoes -2.86737
97
root 2.00493 17.6434 -20.9993 216.466 -70.4478 -43.4608
lowerback 4.31809 3.50699 1.39161
upperback -14.3631 4.26662 -2.76972
thorax -18.4373 1.43341 -4.80157
lowerneck -14.7027 0.0385021 -6.74028
upperneck -15.7511 0.917318 4.20572
head -2.73168 0.47256 2.60393
rclavicle -3.89618e-014 0
rhumerus 76.135 -24.5998 -16.2892
rradius 22.1397
rwrist 6.17874
rhand -31.8567 97.0253
rfingers 7.12502
rthumb 174.89 -53.0563
lclavicle -3.89618e-014 0
lhumerus 79.5457 26.0609 13.3704
lradius 29.4495
lwrist 39.1994
lhand -45.7246 -263.357
lfingers 7.12502
lthumb -18.4808 -67.501
rfemur -23.7426 0.598686 -10.0959
rtibia 17.6249
rfoot -29.9736 -42.1823
rtoes 4.10283
lfemur -47.2474 11.541 31.6925
ltibia 26.7003
lfoot -28.5085 37.1698
ltoes -1.84264
98
root 2.03801 17.6249 -20.8635 220.841 -69.2123 -48.3246
lowerback 4.15759 3.48139 -0.152706
upperback -14.021 3.99929 -3.01703
thorax -17.9931 1.51532 -4.13908
lowerneck -16.5355 0.0258125 -8.13673
upperneck -14.3363 1.30891 5.30825
head -1.99754 0.757862 3.2578
rclavicle 9.22361e-014 7.55382e-014
rhumerus 76.7425 -24.8384 -15.2773
rradius 22.4079
rwrist 4.62096
rhand -31.2495 96.8415
rfingers 7.12502
rthumb 175.476 -53.2268
lclavicle 9.22361e-014 7.55382e-014
lhumerus 78.3784 26.4253 12.0965
lradius 29.7821
lwrist 40.4832
lhand -49.7872 -254.389
lfingers 7.12502
lthumb -22.3849 -76.8877
rfemur -20.6292 2.59537 -10.7029
rtibia 13.647
rfoot -28.2599 -43.3116
rtoes 3.85831
lfemur -47.2461 11.8016 32.6326
ltibia 26.8381
lfoot -30.2568 38.4489
ltoes -0.398272
99
root 2.07774 17.6176 -20.7145 223.085 -68.263 -51.1245
lowerback 4.26688 3.47572 -0.868571
upperback -13.6721 3.89768 -3.11852
thorax -17.6626 1.56376 -3.81957
lowerneck -18.4184 -0.0353428 -9.23135
upperneck -12.9415 1.62892 6.32229
head -1.14851 0.986822 3.53622
rclavicle 1.82882e-013 5.96354e-014
rhumerus 76.6694 -25.2274 -13.7574
rradius 22.4179
rwrist 3.82082
rhand -33.4285 98.9913
rfingers 7.12502
rthumb 173.372 -51.1324
lclavicle 1.82882e-013 5.96354e-014
lhumerus 78.5869 26.477 10.3546
lradius 29.0879
lwrist 41.8279
lhand -45.7277 -261.221
lfingers 7.12502
lthumb -18.4838 -69.6373
rfemur -17.0877 2.91149 -9.94839
rtibia 9.1087
rfoot -25.0899 -42.3581
rtoes 3.14575
lfemur -47.1081 12.483 34.1885
ltibia 27.1861
lfoot -31.6413 39.395
ltoes 0.157438
100
root 2.11721 17.6035 -20.5617 226.419 -67.3369 -55.1045
lowerback 4.37251 3.33207 -1.94358
upperback -13.2971 3.56454 -3.31262
thorax -17.3319 1.54482 -3.36409
lowerneck -20.0118 -0.125103 -9.97643
upperneck -11.6672 1.79297 6.90161
head -0.565413 1.12982 3.85689
rclavicle -2.57625e-013 -1.06549e-013
rhumerus 76.9152 -25.5976 -12.6333
rradius 22.845
rwrist 2.34337
rhand -33.5551 93.7268
rfingers 7.12502
rthumb 173.25 -56.4008
lclavicle -2.57625e-013 -1.06549e-013
lhumerus 76.7587 27.013 9.09643
lradius 29.9242
lwrist 42.7605
lhand -44.8186 -262.032
lfingers 7.12502
lthumb -17.6091 -68.7457
rfemur -12.9825 2.64818 -9.68029
rtibia 3.92367
rfoot -21.5767 -40.9897
rtoes 3.51256
lfemur -47.4214 12.8873 35.204
ltibia 27.4423
lfoot -31.7909 41.001
ltoes -0.189347
101
root 2.16608 17.597 -20.39 226.694 -66.5921 -55.8258
lowerback 4.4438 3.44945 -1.74613
upperback -12.9377 3.76778 -3.25224
thorax -16.8932 1.62462 -3.41367
lowerneck -20.7165 0.150953 -9.51239
upperneck -11.1773 2.10073 6.41962
head -0.344247 1.27216 3.65009
rclavicle -1.4551e-013 -1.59028e-013
rhumerus 77.0693 -26.1347 -11.7769
rradius 23.2714
rwrist 1.53635
rhand -34.1472 92.0247
rfingers 7.12502
rthumb 172.678 -58.122
lclavicle -1.4551e-013 -1.59028e-013
lhumerus 74.8224 27.5754 8.2497
lradius 30.8873
lwrist 43.544
lhand -44.9559 -261.718
lfingers 7.12502
lthumb -17.7412 -69.0711
rfemur -9.9266 2.96542 -8.2888
rtibia 0
rfoot -17.9755 -39.8339
rtoes 3.16661
lfemur -47.2679 14.9636 36.8385
ltibia 27.7639
lfoot -31.1442 41.4812
ltoes -0.713432
102
root 2.22306 17.6046 -20.2534 227.934 -65.7372 -57.5775
lowerback 4.36456 3.47806 -2.44637
upperback -12.5665 3.74518 -3.18701
thorax -16.4285 1.7173 -2.9115
lowerneck -21.2633 0.227344 -9.61364
upperneck -10.8681 2.26523 6.49924
head -0.192169 1.3651 3.70605
rclavicle -7.79236e-014 -4.6118e-014
rhumerus 77.4464 -26.7468 -11.291
rradius 23.6306
rwrist 1.29911
rhand -33.6709 91.3931
rfingers 7.12502
rthumb 173.138 -58.7381
lclavicle -7.79236e-014 -4.6118e-014
lhumerus 74.2718 27.9099 7.75272
lradius 30.7625
lwrist 44.0208
lhand -45.1722 -261.728
lfingers 7.12502
lthumb -17.9494 -69.08
rfemur -8.83766 3.12857 -7.08324
rtibia -2.8625e-014
rfoot -16.9984 -38.6
rtoes 2.85269
lfemur -47.116 16.7357 38.2377
ltibia 27.9518
lfoot -32.2084 40.9867
ltoes -0.0509893
